<svg xmlns="http://www.w3.org/2000/svg" viewBox="0 0 1320 680"
  font-family="-apple-system, 'Segoe UI', Roboto, sans-serif">

  <defs>
    <clipPath id="leftClip">
      <rect x="65" y="65" width="465" height="545" rx="8"/>
    </clipPath>
    <clipPath id="rightClip">
      <rect x="630" y="65" width="625" height="545" rx="8"/>
    </clipPath>
  </defs>

  <!-- ===== BACKGROUND ===== -->
  <rect width="1320" height="680" fill="#0c1117"/>

  <!-- ===================================================================
       LEFT PANEL — BEFORE
       =================================================================== -->
  <rect x="65" y="65" width="465" height="545" rx="8" fill="#161b22" stroke="#21262d" stroke-width="1"/>

  <g clip-path="url(#leftClip)">
    <g transform="translate(65,65)">

      <!-- header -->
      <text x="14" y="26" font-size="11" font-family="'Courier New',monospace" fill="#7d8590">// release_tracking.md</text>
      <text x="14" y="50" font-size="20" font-weight="700" fill="#e6edf3">All releases</text>
      <!-- BEFORE badge -->
      <rect x="397" y="8" width="56" height="22" rx="3" fill="none" stroke="#f85149" stroke-width="1.2"/>
      <text x="425" y="23" text-anchor="middle" font-size="10" font-weight="600" fill="#f85149">BEFORE</text>
      <!-- red alert bar -->
      <rect x="12" y="60" width="441" height="26" rx="4" fill="#3d0f0f"/>
      <text x="24" y="77" font-size="11.5" fill="#f85149">⚠ CI failure buried — no priority, no visibility</text>

      <!-- ── ITEM 1: RELEASE | PROD LIVE | Initial Preview Deployment ── -->
      <g transform="translate(12,95)">
        <rect x="-12" width="453" height="70" fill="none"/>
        <rect x="0" y="6" width="58" height="20" rx="3" fill="#21262d" stroke="#6e40c9" stroke-width="0.75"/>
        <text x="29" y="20" text-anchor="middle" font-size="10" font-weight="600" fill="#d2a8ff">RELEASE</text>
        <rect x="64" y="6" width="82" height="20" rx="3" fill="#0d3d1e"/>
        <circle cx="74" cy="16" r="3.5" fill="#3fb950"/>
        <text x="82" y="20" font-size="10" font-weight="600" fill="#56d364">PROD LIVE</text>
        <text x="441" y="20" text-anchor="end" font-size="11" fill="#7d8590">2h ago</text>
        <text x="0" y="40" font-size="13" font-weight="600" fill="#e6edf3">Initial Preview Deployment</text>
        <text x="0" y="56" font-size="10" font-family="'Courier New',monospace" fill="#484f58">develop → develop → preview →</text>
        <line x1="-12" y1="70" x2="441" y2="70" stroke="#21262d" stroke-width="1"/>
      </g>

      <!-- ── ITEM 2: FEATURE | CI FAILED | Payment gateway... (2-line) ── -->
      <g transform="translate(12,165)">
        <rect x="0" y="6" width="58" height="20" rx="3" fill="#21262d" stroke="#1f6feb" stroke-width="0.75"/>
        <text x="29" y="20" text-anchor="middle" font-size="10" font-weight="600" fill="#79c0ff">FEATURE</text>
        <rect x="64" y="6" width="78" height="20" rx="3" fill="#3d0f0f"/>
        <circle cx="74" cy="16" r="3.5" fill="#f85149"/>
        <text x="82" y="20" font-size="10" font-weight="600" fill="#ffa198">CI FAILED</text>
        <text x="441" y="20" text-anchor="end" font-size="11" fill="#7d8590">just now</text>
        <text x="0" y="40" font-size="13" font-weight="600" fill="#e6edf3">Payment gateway integration</text>
        <text x="0" y="56" font-size="13" font-weight="600" fill="#e6edf3">failing on staging tests</text>
        <text x="0" y="72" font-size="10" font-family="'Courier New',monospace" fill="#484f58">feat/payment-gateway → develop</text>
        <line x1="-12" y1="80" x2="441" y2="80" stroke="#21262d" stroke-width="1"/>
      </g>

      <!-- ── ITEM 3: RELEASE | PROD LIVE | Release v1.0.0 ── -->
      <g transform="translate(12,255)">
        <rect x="0" y="6" width="58" height="20" rx="3" fill="#21262d" stroke="#6e40c9" stroke-width="0.75"/>
        <text x="29" y="20" text-anchor="middle" font-size="10" font-weight="600" fill="#d2a8ff">RELEASE</text>
        <rect x="64" y="6" width="82" height="20" rx="3" fill="#0d3d1e"/>
        <circle cx="74" cy="16" r="3.5" fill="#3fb950"/>
        <text x="82" y="20" font-size="10" font-weight="600" fill="#56d364">PROD LIVE</text>
        <text x="441" y="20" text-anchor="end" font-size="11" fill="#7d8590">2d ago</text>
        <text x="0" y="40" font-size="13" font-weight="600" fill="#e6edf3">Release v1.0.0</text>
        <text x="0" y="56" font-size="10" font-family="'Courier New',monospace" fill="#484f58">release/v1.0.0 → main</text>
        <line x1="-12" y1="66" x2="441" y2="66" stroke="#21262d" stroke-width="1"/>
      </g>

      <!-- ── ITEM 4: FEATURE | DRAFT PR | Add rate limiting... ── -->
      <g transform="translate(12,331)">
        <rect x="0" y="6" width="58" height="20" rx="3" fill="#21262d" stroke="#1f6feb" stroke-width="0.75"/>
        <text x="29" y="20" text-anchor="middle" font-size="10" font-weight="600" fill="#79c0ff">FEATURE</text>
        <rect x="64" y="6" width="70" height="20" rx="3" fill="#0c2040" stroke="#1f6feb" stroke-width="0.75"/>
        <circle cx="74" cy="16" r="3.5" fill="#388bfd"/>
        <text x="82" y="20" font-size="10" font-weight="600" fill="#79c0ff">DRAFT PR</text>
        <text x="441" y="20" text-anchor="end" font-size="11" fill="#7d8590">1h ago</text>
        <text x="0" y="40" font-size="13" font-weight="600" fill="#e6edf3">Add rate limiting to items API endpoint</text>
        <text x="0" y="56" font-size="10" font-family="'Courier New',monospace" fill="#484f58">feat/items-rate-limit → develop</text>
        <line x1="-12" y1="66" x2="441" y2="66" stroke="#21262d" stroke-width="1"/>
      </g>

      <!-- ── ITEM 5: FEATURE | ROLLED BACK | Draft: Implement... (2-line) ── -->
      <g transform="translate(12,407)">
        <rect x="0" y="6" width="58" height="20" rx="3" fill="#21262d" stroke="#1f6feb" stroke-width="0.75"/>
        <text x="29" y="20" text-anchor="middle" font-size="10" font-weight="600" fill="#79c0ff">FEATURE</text>
        <rect x="64" y="6" width="90" height="20" rx="3" fill="#1d4ed8"/>
        <circle cx="74" cy="16" r="3.5" fill="#93c5fd"/>
        <text x="82" y="20" font-size="10" font-weight="600" fill="#e6edf3">ROLLED BACK</text>
        <text x="441" y="20" text-anchor="end" font-size="11" fill="#7d8590">3d ago</text>
        <text x="0" y="40" font-size="13" font-weight="600" fill="#e6edf3">Draft: Implement feature X, fix bug Y,</text>
        <text x="0" y="56" font-size="13" font-weight="600" fill="#e6edf3">and update docs</text>
        <text x="0" y="72" font-size="10" font-family="'Courier New',monospace" fill="#484f58">feature-x-bug-y-docs → de...</text>
        <line x1="-12" y1="80" x2="441" y2="80" stroke="#21262d" stroke-width="1"/>
      </g>

      <!-- ── ITEM 6: RELEASE | PREVIEW | Release v1.1.0 ── -->
      <g transform="translate(12,497)">
        <rect x="0" y="6" width="58" height="20" rx="3" fill="#21262d" stroke="#6e40c9" stroke-width="0.75"/>
        <text x="29" y="20" text-anchor="middle" font-size="10" font-weight="600" fill="#d2a8ff">RELEASE</text>
        <rect x="64" y="6" width="72" height="20" rx="3" fill="#3d2902"/>
        <circle cx="74" cy="16" r="3.5" fill="#d29922"/>
        <text x="82" y="20" font-size="10" font-weight="600" fill="#d29922">PREVIEW</text>
        <text x="441" y="20" text-anchor="end" font-size="11" fill="#7d8590">30m ago</text>
        <text x="0" y="40" font-size="13" font-weight="600" fill="#e6edf3">Release v1.1.0 — items API with rate limiting</text>
        <text x="0" y="56" font-size="10" font-family="'Courier New',monospace" fill="#484f58">develop → preview → main</text>
      </g>

      <!-- scrollbar track -->
      <rect x="448" y="96" width="4" height="500" rx="2" fill="#21262d"/>
      <!-- scrollbar thumb -->
      <rect x="448" y="96" width="4" height="180" rx="2" fill="#444d56"/>

    </g>
  </g>

  <!-- ===================================================================
       CENTER SEPARATOR — arrow only, no text
       =================================================================== -->
  <line x1="597" y1="70" x2="597" y2="608" stroke="#30363d" stroke-width="1"/>
  <circle cx="597" cy="345" r="24" fill="#161b22" stroke="#30363d" stroke-width="1.5"/>
  <g transform="translate(597,345)" stroke="#3fb950" stroke-width="2.2" fill="none"
     stroke-linecap="round" stroke-linejoin="round">
    <line x1="-9" y1="0" x2="7" y2="0"/>
    <path d="M2 -6 L10 0 L2 6"/>
  </g>

  <!-- ===================================================================
       RIGHT PANEL — AFTER
       =================================================================== -->
  <rect x="630" y="65" width="625" height="545" rx="8" fill="#161b22" stroke="#21262d" stroke-width="1"/>

  <g clip-path="url(#rightClip)">
    <g transform="translate(630,65)">

      <!-- header -->
      <text x="14" y="26" font-size="11" font-family="'Courier New',monospace" fill="#7d8590">// release trace board</text>
      <text x="14" y="50" font-size="20" font-weight="700" fill="#e6edf3">Release Trace Board</text>
      <!-- AFTER badge -->
      <rect x="561" y="8" width="50" height="22" rx="3" fill="none" stroke="#3fb950" stroke-width="1.2"/>
      <text x="586" y="23" text-anchor="middle" font-size="10" font-weight="600" fill="#3fb950">AFTER</text>
      <!-- green alert bar -->
      <rect x="12" y="60" width="601" height="26" rx="4" fill="#0d3d1e"/>
      <text x="24" y="77" font-size="11.5" fill="#3fb950">🚩 1 needs attention — visible immediately</text>

      <!-- ===== KANBAN COLUMNS ===== -->
      <!-- Column layout: 4 cols × 144px, x: 12, 162, 312, 462, gap=6 -->

      <!-- ── COL 1: NEEDS ATTENTION (x=12, red top) ── -->
      <g transform="translate(12,95)">
        <!-- column container -->
        <rect width="144" height="440" rx="4" fill="#0d1117" stroke="#21262d" stroke-width="1"/>
        <!-- red top strip -->
        <rect width="144" height="4" rx="2" fill="#f85149"/>
        <!-- header -->
        <text x="8" y="22" font-size="11.5" font-weight="600" fill="#e6edf3">Needs attention</text>
        <text x="136" y="22" text-anchor="end" font-size="11.5" font-weight="600" fill="#7d8590">1</text>
        <line x1="0" y1="30" x2="144" y2="30" stroke="#21262d" stroke-width="1"/>

        <!-- Card 1: FEATURE | CI FAILED -->
        <rect x="6" y="38" width="132" height="86" rx="5" fill="#161b22" stroke="#21262d" stroke-width="1"/>
        <rect x="12" y="46" width="46" height="18" rx="3" fill="#21262d" stroke="#1f6feb" stroke-width="0.75"/>
        <text x="35" y="58" text-anchor="middle" font-size="9" font-weight="600" fill="#79c0ff">FEATURE</text>
        <rect x="62" y="46" width="70" height="18" rx="3" fill="#3d0f0f"/>
        <circle cx="70" cy="55" r="3" fill="#f85149"/>
        <text x="77" y="58" font-size="9" font-weight="600" fill="#ffa198">CI FAILED</text>
        <text x="12" y="77" font-size="11" font-weight="600" fill="#e6edf3">Payment gateway</text>
        <text x="12" y="91" font-size="11" font-weight="600" fill="#e6edf3">integration failing on...</text>
        <text x="12" y="114" font-size="9" font-family="'Courier New',monospace" fill="#484f58">feat/payment-gatewa...</text>
      </g>

      <!-- ── COL 2: DEVELOPMENT (x=162, blue top) ── -->
      <g transform="translate(162,95)">
        <rect width="144" height="440" rx="4" fill="#0d1117" stroke="#21262d" stroke-width="1"/>
        <rect width="144" height="4" rx="2" fill="#388bfd"/>
        <text x="8" y="22" font-size="11.5" font-weight="600" fill="#e6edf3">Development</text>
        <text x="136" y="22" text-anchor="end" font-size="11.5" font-weight="600" fill="#7d8590">2</text>
        <line x1="0" y1="30" x2="144" y2="30" stroke="#21262d" stroke-width="1"/>

        <!-- Card 1: FEATURE | DRAFT PR -->
        <rect x="6" y="38" width="132" height="86" rx="5" fill="#161b22" stroke="#21262d" stroke-width="1"/>
        <rect x="12" y="46" width="46" height="18" rx="3" fill="#21262d" stroke="#1f6feb" stroke-width="0.75"/>
        <text x="35" y="58" text-anchor="middle" font-size="9" font-weight="600" fill="#79c0ff">FEATURE</text>
        <rect x="62" y="46" width="64" height="18" rx="3" fill="#0c2040" stroke="#1f6feb" stroke-width="0.75"/>
        <circle cx="70" cy="55" r="3" fill="#388bfd"/>
        <text x="77" y="58" font-size="9" font-weight="600" fill="#79c0ff">DRAFT PR</text>
        <text x="12" y="77" font-size="11" font-weight="600" fill="#e6edf3">Add rate limiting to</text>
        <text x="12" y="91" font-size="11" font-weight="600" fill="#e6edf3">items API endpoint</text>
        <text x="12" y="114" font-size="9" font-family="'Courier New',monospace" fill="#484f58">feat/items-rate-lim...</text>

        <!-- Card 2: RELEASE | PREVIEW -->
        <rect x="6" y="132" width="132" height="86" rx="5" fill="#161b22" stroke="#21262d" stroke-width="1"/>
        <rect x="12" y="140" width="46" height="18" rx="3" fill="#21262d" stroke="#6e40c9" stroke-width="0.75"/>
        <text x="35" y="152" text-anchor="middle" font-size="9" font-weight="600" fill="#d2a8ff">RELEASE</text>
        <rect x="62" y="140" width="66" height="18" rx="3" fill="#3d2902"/>
        <circle cx="70" cy="149" r="3" fill="#d29922"/>
        <text x="77" y="152" font-size="9" font-weight="600" fill="#d29922">PREVIEW</text>
        <text x="12" y="171" font-size="11" font-weight="600" fill="#e6edf3">Release v1.1.0 — items</text>
        <text x="12" y="185" font-size="11" font-weight="600" fill="#e6edf3">API with rate limiting</text>
        <text x="12" y="208" font-size="9" font-family="'Courier New',monospace" fill="#484f58">develop → preview →...</text>
      </g>

      <!-- ── COL 3: PRODUCTION (x=312, purple top) ── -->
      <g transform="translate(312,95)">
        <rect width="144" height="440" rx="4" fill="#0d1117" stroke="#21262d" stroke-width="1"/>
        <rect width="144" height="4" rx="2" fill="#a371f7"/>
        <text x="8" y="22" font-size="11.5" font-weight="600" fill="#e6edf3">Production</text>
        <text x="136" y="22" text-anchor="end" font-size="11.5" font-weight="600" fill="#7d8590">5</text>
        <line x1="0" y1="30" x2="144" y2="30" stroke="#21262d" stroke-width="1"/>

        <!-- Card 1: RELEASE | PROD LIVE — Initial Preview Deployment -->
        <rect x="6" y="38" width="132" height="86" rx="5" fill="#161b22" stroke="#21262d" stroke-width="1"/>
        <rect x="12" y="46" width="46" height="18" rx="3" fill="#21262d" stroke="#6e40c9" stroke-width="0.75"/>
        <text x="35" y="58" text-anchor="middle" font-size="9" font-weight="600" fill="#d2a8ff">RELEASE</text>
        <rect x="62" y="46" width="74" height="18" rx="3" fill="#0d3d1e"/>
        <circle cx="70" cy="55" r="3" fill="#3fb950"/>
        <text x="77" y="58" font-size="9" font-weight="600" fill="#56d364">PROD LIVE</text>
        <text x="12" y="77" font-size="11" font-weight="600" fill="#e6edf3">Initial Preview</text>
        <text x="12" y="91" font-size="11" font-weight="600" fill="#e6edf3">Deployment</text>
        <text x="12" y="114" font-size="9" font-family="'Courier New',monospace" fill="#484f58">develop → develop →...</text>

        <!-- Card 2: RELEASE | PROD LIVE — Release v1.0.0 -->
        <rect x="6" y="132" width="132" height="74" rx="5" fill="#161b22" stroke="#21262d" stroke-width="1"/>
        <rect x="12" y="140" width="46" height="18" rx="3" fill="#21262d" stroke="#6e40c9" stroke-width="0.75"/>
        <text x="35" y="152" text-anchor="middle" font-size="9" font-weight="600" fill="#d2a8ff">RELEASE</text>
        <rect x="62" y="140" width="74" height="18" rx="3" fill="#0d3d1e"/>
        <circle cx="70" cy="149" r="3" fill="#3fb950"/>
        <text x="77" y="152" font-size="9" font-weight="600" fill="#56d364">PROD LIVE</text>
        <text x="12" y="171" font-size="11" font-weight="600" fill="#e6edf3">Release v1.0.0</text>
        <text x="12" y="196" font-size="9" font-family="'Courier New',monospace" fill="#484f58">release/v1.0.0 → ma...</text>

        <!-- Card 3: RELEASE | PROD LIVE — Promote develop branch -->
        <rect x="6" y="214" width="132" height="86" rx="5" fill="#161b22" stroke="#21262d" stroke-width="1"/>
        <rect x="12" y="222" width="46" height="18" rx="3" fill="#21262d" stroke="#6e40c9" stroke-width="0.75"/>
        <text x="35" y="234" text-anchor="middle" font-size="9" font-weight="600" fill="#d2a8ff">RELEASE</text>
        <rect x="62" y="222" width="74" height="18" rx="3" fill="#0d3d1e"/>
        <circle cx="70" cy="231" r="3" fill="#3fb950"/>
        <text x="77" y="234" font-size="9" font-weight="600" fill="#56d364">PROD LIVE</text>
        <text x="12" y="253" font-size="11" font-weight="600" fill="#e6edf3">Promote develop</text>
        <text x="12" y="267" font-size="11" font-weight="600" fill="#e6edf3">branch to production...</text>
        <text x="12" y="290" font-size="9" font-family="'Courier New',monospace" fill="#484f58">develop → develop →...</text>

        <!-- Card 4: FEATURE | PROD LIVE — Update checkout -->
        <rect x="6" y="308" width="132" height="86" rx="5" fill="#161b22" stroke="#21262d" stroke-width="1"/>
        <rect x="12" y="316" width="46" height="18" rx="3" fill="#21262d" stroke="#1f6feb" stroke-width="0.75"/>
        <text x="35" y="328" text-anchor="middle" font-size="9" font-weight="600" fill="#79c0ff">FEATURE</text>
        <rect x="62" y="316" width="74" height="18" rx="3" fill="#0d3d1e"/>
        <circle cx="70" cy="325" r="3" fill="#3fb950"/>
        <text x="77" y="328" font-size="9" font-weight="600" fill="#56d364">PROD LIVE</text>
        <text x="12" y="347" font-size="11" font-weight="600" fill="#e6edf3">Update checkout</text>
        <text x="12" y="361" font-size="11" font-weight="600" fill="#e6edf3">heading color in...</text>
      </g>

      <!-- ── COL 4: CLOSED (x=462, green top) ── -->
      <g transform="translate(462,95)">
        <rect width="144" height="440" rx="4" fill="#0d1117" stroke="#21262d" stroke-width="1"/>
        <rect width="144" height="4" rx="2" fill="#3fb950"/>
        <text x="8" y="22" font-size="11.5" font-weight="600" fill="#e6edf3">Closed</text>
        <text x="136" y="22" text-anchor="end" font-size="11.5" font-weight="600" fill="#7d8590">2</text>
        <line x1="0" y1="30" x2="144" y2="30" stroke="#21262d" stroke-width="1"/>

        <!-- Card 1: FEATURE | ROLLED BACK -->
        <rect x="6" y="38" width="132" height="86" rx="5" fill="#161b22" stroke="#21262d" stroke-width="1"/>
        <rect x="12" y="46" width="46" height="18" rx="3" fill="#21262d" stroke="#1f6feb" stroke-width="0.75"/>
        <text x="35" y="58" text-anchor="middle" font-size="9" font-weight="600" fill="#79c0ff">FEATURE</text>
        <rect x="62" y="46" width="74" height="18" rx="3" fill="#1d4ed8"/>
        <circle cx="70" cy="55" r="3" fill="#93c5fd"/>
        <text x="77" y="58" font-size="9" font-weight="600" fill="#e6edf3">ROLLED BACK</text>
        <text x="12" y="77" font-size="11" font-weight="600" fill="#e6edf3">Draft: Implement</text>
        <text x="12" y="91" font-size="11" font-weight="600" fill="#e6edf3">feature X, fix bug Y, an...</text>
        <text x="12" y="114" font-size="9" font-family="'Courier New',monospace" fill="#484f58">feature-x-bug-y-doc...</text>

        <!-- Card 2: RELEASE | ROLLED BACK -->
        <rect x="6" y="132" width="132" height="74" rx="5" fill="#161b22" stroke="#21262d" stroke-width="1"/>
        <rect x="12" y="140" width="46" height="18" rx="3" fill="#21262d" stroke="#6e40c9" stroke-width="0.75"/>
        <text x="35" y="152" text-anchor="middle" font-size="9" font-weight="600" fill="#d2a8ff">RELEASE</text>
        <rect x="62" y="140" width="74" height="18" rx="3" fill="#1d4ed8"/>
        <circle cx="70" cy="149" r="3" fill="#93c5fd"/>
        <text x="77" y="152" font-size="9" font-weight="600" fill="#e6edf3">ROLLED BACK</text>
        <text x="12" y="171" font-size="11" font-weight="600" fill="#e6edf3">release: v1.0.2</text>
        <text x="12" y="196" font-size="9" font-family="'Courier New',monospace" fill="#484f58">develop → develop →...</text>
      </g>

    </g>
  </g>

</svg>